<?xml version="1.0" encoding="UTF-8" standalone="no"?>
<!DOCTYPE svg PUBLIC "-//W3C//DTD SVG 1.1//EN"
 "http://www.w3.org/Graphics/SVG/1.1/DTD/svg11.dtd">
<!-- Generated by graphviz version 5.0.0 (20220707.1540)
 -->
<!-- Title: dependencies Pages: 1 -->
<svg width="617pt" height="247pt"
 viewBox="0.00 0.00 617.00 246.80" xmlns="http://www.w3.org/2000/svg" xmlns:xlink="http://www.w3.org/1999/xlink">
<g id="graph0" class="graph" transform="scale(1 1) rotate(0) translate(4 242.8)">
<title>dependencies</title>
<polygon fill="white" stroke="transparent" points="-4,4 -4,-242.8 613,-242.8 613,4 -4,4"/>
<text text-anchor="middle" x="304.5" y="-8.2" font-family="sans-serif" font-size="14.00">dependencies</text>
<g id="clust1" class="cluster">
<title>cluster_MyprofileModule</title>
<polygon fill="none" stroke="black" stroke-dasharray="1,5" points="8,-32.8 8,-230.8 601,-230.8 601,-32.8 8,-32.8"/>
</g>
<g id="clust5" class="cluster">
<title>cluster_MyprofileModule_exports</title>
<polygon fill="none" stroke="black" points="241,-170.8 241,-222.8 399,-222.8 399,-170.8 241,-170.8"/>
</g>
<g id="clust2" class="cluster">
<title>cluster_MyprofileModule_declarations</title>
<polygon fill="none" stroke="black" points="439,-40.8 439,-92.8 593,-92.8 593,-40.8 439,-40.8"/>
</g>
<g id="clust4" class="cluster">
<title>cluster_MyprofileModule_imports</title>
<polygon fill="none" stroke="black" points="16,-40.8 16,-92.8 431,-92.8 431,-40.8 16,-40.8"/>
</g>
<!-- MyprofileComponent -->
<g id="node1" class="node">
<title>MyprofileComponent</title>
<polygon fill="#ffffb3" stroke="black" points="585.1,-84.8 446.9,-84.8 446.9,-48.8 585.1,-48.8 585.1,-84.8"/>
<text text-anchor="middle" x="516" y="-62.6" font-family="Times,serif" font-size="14.00">MyprofileComponent</text>
</g>
<!-- MyprofileModule -->
<g id="node2" class="node">
<title>MyprofileModule</title>
<polygon fill="#8dd3c7" stroke="black" points="378.32,-149.8 375.32,-153.8 354.32,-153.8 351.32,-149.8 261.68,-149.8 261.68,-113.8 378.32,-113.8 378.32,-149.8"/>
<text text-anchor="middle" x="320" y="-127.6" font-family="Times,serif" font-size="14.00">MyprofileModule</text>
</g>
<!-- MyprofileComponent&#45;&gt;MyprofileModule -->
<g id="edge1" class="edge">
<title>MyprofileComponent&#45;&gt;MyprofileModule</title>
<path fill="none" stroke="black" d="M516,-84.91C516,-104.14 516,-131.8 516,-131.8 516,-131.8 388.28,-131.8 388.28,-131.8"/>
<polygon fill="black" stroke="black" points="388.28,-128.3 378.28,-131.8 388.28,-135.3 388.28,-128.3"/>
</g>
<!-- MyprofileComponent  -->
<g id="node6" class="node">
<title>MyprofileComponent </title>
<polygon fill="#fb8072" stroke="black" points="390.6,-214.8 249.4,-214.8 249.4,-178.8 390.6,-178.8 390.6,-214.8"/>
<text text-anchor="middle" x="320" y="-192.6" font-family="Times,serif" font-size="14.00">MyprofileComponent </text>
</g>
<!-- MyprofileModule&#45;&gt;MyprofileComponent  -->
<g id="edge5" class="edge">
<title>MyprofileModule&#45;&gt;MyprofileComponent </title>
<path fill="none" stroke="black" stroke-dasharray="5,2" d="M320,-149.91C320,-149.91 320,-168.79 320,-168.79"/>
<polygon fill="black" stroke="black" points="316.5,-168.79 320,-178.79 323.5,-168.79 316.5,-168.79"/>
</g>
<!-- CardModule -->
<g id="node3" class="node">
<title>CardModule</title>
<polygon fill="#8dd3c7" stroke="black" points="423.27,-84.8 420.27,-88.8 399.27,-88.8 396.27,-84.8 336.73,-84.8 336.73,-48.8 423.27,-48.8 423.27,-84.8"/>
<text text-anchor="middle" x="380" y="-62.6" font-family="Times,serif" font-size="14.00">CardModule</text>
</g>
<!-- CardModule&#45;&gt;MyprofileModule -->
<g id="edge2" class="edge">
<title>CardModule&#45;&gt;MyprofileModule</title>
<path fill="none" stroke="black" d="M357.39,-84.91C357.39,-84.91 357.39,-103.79 357.39,-103.79"/>
<polygon fill="black" stroke="black" points="353.89,-103.79 357.39,-113.79 360.89,-103.79 353.89,-103.79"/>
</g>
<!-- CommentModule -->
<g id="node4" class="node">
<title>CommentModule</title>
<polygon fill="#8dd3c7" stroke="black" points="318.27,-84.8 315.27,-88.8 294.27,-88.8 291.27,-84.8 203.73,-84.8 203.73,-48.8 318.27,-48.8 318.27,-84.8"/>
<text text-anchor="middle" x="261" y="-62.6" font-family="Times,serif" font-size="14.00">CommentModule</text>
</g>
<!-- CommentModule&#45;&gt;MyprofileModule -->
<g id="edge3" class="edge">
<title>CommentModule&#45;&gt;MyprofileModule</title>
<path fill="none" stroke="black" d="M290.11,-84.91C290.11,-84.91 290.11,-103.79 290.11,-103.79"/>
<polygon fill="black" stroke="black" points="286.61,-103.79 290.11,-113.79 293.61,-103.79 286.61,-103.79"/>
</g>
<!-- MyprofileRoutingModule -->
<g id="node5" class="node">
<title>MyprofileRoutingModule</title>
<polygon fill="#8dd3c7" stroke="black" points="185.94,-84.8 182.94,-88.8 161.94,-88.8 158.94,-84.8 24.06,-84.8 24.06,-48.8 185.94,-48.8 185.94,-84.8"/>
<text text-anchor="middle" x="105" y="-62.6" font-family="Times,serif" font-size="14.00">MyprofileRoutingModule</text>
</g>
<!-- MyprofileRoutingModule&#45;&gt;MyprofileModule -->
<g id="edge4" class="edge">
<title>MyprofileRoutingModule&#45;&gt;MyprofileModule</title>
<path fill="none" stroke="black" d="M105,-84.91C105,-104.14 105,-131.8 105,-131.8 105,-131.8 251.82,-131.8 251.82,-131.8"/>
<polygon fill="black" stroke="black" points="251.82,-135.3 261.82,-131.8 251.82,-128.3 251.82,-135.3"/>
</g>
</g>
</svg>
