<?xml version="1.0" encoding="UTF-8" standalone="no"?>
<!DOCTYPE svg PUBLIC "-//W3C//DTD SVG 1.1//EN"
 "http://www.w3.org/Graphics/SVG/1.1/DTD/svg11.dtd">
<!-- Generated by graphviz version 5.0.0 (20220707.1540)
 -->
<!-- Title: dependencies Pages: 1 -->
<svg width="580pt" height="247pt"
 viewBox="0.00 0.00 580.00 246.80" xmlns="http://www.w3.org/2000/svg" xmlns:xlink="http://www.w3.org/1999/xlink">
<g id="graph0" class="graph" transform="scale(1 1) rotate(0) translate(4 242.8)">
<title>dependencies</title>
<polygon fill="white" stroke="transparent" points="-4,4 -4,-242.8 576,-242.8 576,4 -4,4"/>
<text text-anchor="middle" x="286" y="-8.2" font-family="sans-serif" font-size="14.00">dependencies</text>
<g id="clust1" class="cluster">
<title>cluster_ProfileModule</title>
<polygon fill="none" stroke="black" stroke-dasharray="1,5" points="8,-32.8 8,-230.8 564,-230.8 564,-32.8 8,-32.8"/>
</g>
<g id="clust2" class="cluster">
<title>cluster_ProfileModule_declarations</title>
<polygon fill="none" stroke="black" points="420,-40.8 420,-92.8 556,-92.8 556,-40.8 420,-40.8"/>
</g>
<g id="clust4" class="cluster">
<title>cluster_ProfileModule_imports</title>
<polygon fill="none" stroke="black" points="16,-40.8 16,-92.8 412,-92.8 412,-40.8 16,-40.8"/>
</g>
<g id="clust5" class="cluster">
<title>cluster_ProfileModule_exports</title>
<polygon fill="none" stroke="black" points="232,-170.8 232,-222.8 370,-222.8 370,-170.8 232,-170.8"/>
</g>
<!-- ProfileComponent -->
<g id="node1" class="node">
<title>ProfileComponent</title>
<polygon fill="#ffffb3" stroke="black" points="547.94,-84.8 428.06,-84.8 428.06,-48.8 547.94,-48.8 547.94,-84.8"/>
<text text-anchor="middle" x="488" y="-62.6" font-family="Times,serif" font-size="14.00">ProfileComponent</text>
</g>
<!-- ProfileModule -->
<g id="node2" class="node">
<title>ProfileModule</title>
<polygon fill="#8dd3c7" stroke="black" points="349.66,-149.8 346.66,-153.8 325.66,-153.8 322.66,-149.8 252.34,-149.8 252.34,-113.8 349.66,-113.8 349.66,-149.8"/>
<text text-anchor="middle" x="301" y="-127.6" font-family="Times,serif" font-size="14.00">ProfileModule</text>
</g>
<!-- ProfileComponent&#45;&gt;ProfileModule -->
<g id="edge1" class="edge">
<title>ProfileComponent&#45;&gt;ProfileModule</title>
<path fill="none" stroke="black" d="M488,-84.91C488,-104.14 488,-131.8 488,-131.8 488,-131.8 360.13,-131.8 360.13,-131.8"/>
<polygon fill="black" stroke="black" points="360.13,-128.3 350.13,-131.8 360.13,-135.3 360.13,-128.3"/>
</g>
<!-- ProfileComponent  -->
<g id="node6" class="node">
<title>ProfileComponent </title>
<polygon fill="#fb8072" stroke="black" points="362.43,-214.8 239.57,-214.8 239.57,-178.8 362.43,-178.8 362.43,-214.8"/>
<text text-anchor="middle" x="301" y="-192.6" font-family="Times,serif" font-size="14.00">ProfileComponent </text>
</g>
<!-- ProfileModule&#45;&gt;ProfileComponent  -->
<g id="edge5" class="edge">
<title>ProfileModule&#45;&gt;ProfileComponent </title>
<path fill="none" stroke="black" stroke-dasharray="5,2" d="M301,-149.91C301,-149.91 301,-168.79 301,-168.79"/>
<polygon fill="black" stroke="black" points="297.5,-168.79 301,-178.79 304.5,-168.79 297.5,-168.79"/>
</g>
<!-- CardModule -->
<g id="node3" class="node">
<title>CardModule</title>
<polygon fill="#8dd3c7" stroke="black" points="404.27,-84.8 401.27,-88.8 380.27,-88.8 377.27,-84.8 317.73,-84.8 317.73,-48.8 404.27,-48.8 404.27,-84.8"/>
<text text-anchor="middle" x="361" y="-62.6" font-family="Times,serif" font-size="14.00">CardModule</text>
</g>
<!-- CardModule&#45;&gt;ProfileModule -->
<g id="edge2" class="edge">
<title>CardModule&#45;&gt;ProfileModule</title>
<path fill="none" stroke="black" d="M333.72,-84.91C333.72,-84.91 333.72,-103.79 333.72,-103.79"/>
<polygon fill="black" stroke="black" points="330.22,-103.79 333.72,-113.79 337.22,-103.79 330.22,-103.79"/>
</g>
<!-- CommentModule -->
<g id="node4" class="node">
<title>CommentModule</title>
<polygon fill="#8dd3c7" stroke="black" points="299.27,-84.8 296.27,-88.8 275.27,-88.8 272.27,-84.8 184.73,-84.8 184.73,-48.8 299.27,-48.8 299.27,-84.8"/>
<text text-anchor="middle" x="242" y="-62.6" font-family="Times,serif" font-size="14.00">CommentModule</text>
</g>
<!-- CommentModule&#45;&gt;ProfileModule -->
<g id="edge3" class="edge">
<title>CommentModule&#45;&gt;ProfileModule</title>
<path fill="none" stroke="black" d="M275.78,-84.91C275.78,-84.91 275.78,-103.79 275.78,-103.79"/>
<polygon fill="black" stroke="black" points="272.28,-103.79 275.78,-113.79 279.28,-103.79 272.28,-103.79"/>
</g>
<!-- ProfileRoutingModule -->
<g id="node5" class="node">
<title>ProfileRoutingModule</title>
<polygon fill="#8dd3c7" stroke="black" points="166.27,-84.8 163.27,-88.8 142.27,-88.8 139.27,-84.8 23.73,-84.8 23.73,-48.8 166.27,-48.8 166.27,-84.8"/>
<text text-anchor="middle" x="95" y="-62.6" font-family="Times,serif" font-size="14.00">ProfileRoutingModule</text>
</g>
<!-- ProfileRoutingModule&#45;&gt;ProfileModule -->
<g id="edge4" class="edge">
<title>ProfileRoutingModule&#45;&gt;ProfileModule</title>
<path fill="none" stroke="black" d="M95,-84.91C95,-104.14 95,-131.8 95,-131.8 95,-131.8 242.18,-131.8 242.18,-131.8"/>
<polygon fill="black" stroke="black" points="242.18,-135.3 252.18,-131.8 242.18,-128.3 242.18,-135.3"/>
</g>
</g>
</svg>
