<?xml version="1.0" encoding="UTF-8" standalone="no"?>
<!DOCTYPE svg PUBLIC "-//W3C//DTD SVG 1.1//EN"
 "http://www.w3.org/Graphics/SVG/1.1/DTD/svg11.dtd">
<!-- Generated by graphviz version 5.0.0 (20220707.1540)
 -->
<!-- Title: dependencies Pages: 1 -->
<svg width="445pt" height="247pt"
 viewBox="0.00 0.00 445.00 246.80" xmlns="http://www.w3.org/2000/svg" xmlns:xlink="http://www.w3.org/1999/xlink">
<g id="graph0" class="graph" transform="scale(1 1) rotate(0) translate(4 242.8)">
<title>dependencies</title>
<polygon fill="white" stroke="transparent" points="-4,4 -4,-242.8 441,-242.8 441,4 -4,4"/>
<text text-anchor="middle" x="218.5" y="-8.2" font-family="sans-serif" font-size="14.00">dependencies</text>
<g id="clust1" class="cluster">
<title>cluster_HomeModule</title>
<polygon fill="none" stroke="black" stroke-dasharray="1,5" points="8,-32.8 8,-230.8 429,-230.8 429,-32.8 8,-32.8"/>
</g>
<g id="clust4" class="cluster">
<title>cluster_HomeModule_imports</title>
<polygon fill="none" stroke="black" points="156,-40.8 156,-92.8 421,-92.8 421,-40.8 156,-40.8"/>
</g>
<g id="clust5" class="cluster">
<title>cluster_HomeModule_exports</title>
<polygon fill="none" stroke="black" points="142,-170.8 142,-222.8 278,-222.8 278,-170.8 142,-170.8"/>
</g>
<g id="clust2" class="cluster">
<title>cluster_HomeModule_declarations</title>
<polygon fill="none" stroke="black" points="16,-40.8 16,-92.8 148,-92.8 148,-40.8 16,-40.8"/>
</g>
<!-- HomeComponent -->
<g id="node1" class="node">
<title>HomeComponent</title>
<polygon fill="#ffffb3" stroke="black" points="139.55,-84.8 24.45,-84.8 24.45,-48.8 139.55,-48.8 139.55,-84.8"/>
<text text-anchor="middle" x="82" y="-62.6" font-family="Times,serif" font-size="14.00">HomeComponent</text>
</g>
<!-- HomeModule -->
<g id="node2" class="node">
<title>HomeModule</title>
<polygon fill="#8dd3c7" stroke="black" points="256.77,-149.8 253.77,-153.8 232.77,-153.8 229.77,-149.8 163.23,-149.8 163.23,-113.8 256.77,-113.8 256.77,-149.8"/>
<text text-anchor="middle" x="210" y="-127.6" font-family="Times,serif" font-size="14.00">HomeModule</text>
</g>
<!-- HomeComponent&#45;&gt;HomeModule -->
<g id="edge1" class="edge">
<title>HomeComponent&#45;&gt;HomeModule</title>
<path fill="none" stroke="black" d="M82,-84.91C82,-104.14 82,-131.8 82,-131.8 82,-131.8 153.06,-131.8 153.06,-131.8"/>
<polygon fill="black" stroke="black" points="153.06,-135.3 163.06,-131.8 153.06,-128.3 153.06,-135.3"/>
</g>
<!-- HomeComponent  -->
<g id="node5" class="node">
<title>HomeComponent </title>
<polygon fill="#fb8072" stroke="black" points="269.54,-214.8 150.46,-214.8 150.46,-178.8 269.54,-178.8 269.54,-214.8"/>
<text text-anchor="middle" x="210" y="-192.6" font-family="Times,serif" font-size="14.00">HomeComponent </text>
</g>
<!-- HomeModule&#45;&gt;HomeComponent  -->
<g id="edge4" class="edge">
<title>HomeModule&#45;&gt;HomeComponent </title>
<path fill="none" stroke="black" stroke-dasharray="5,2" d="M210,-149.91C210,-149.91 210,-168.79 210,-168.79"/>
<polygon fill="black" stroke="black" points="206.5,-168.79 210,-178.79 213.5,-168.79 206.5,-168.79"/>
</g>
<!-- HomeRoutingModule -->
<g id="node3" class="node">
<title>HomeRoutingModule</title>
<polygon fill="#8dd3c7" stroke="black" points="413.38,-84.8 410.38,-88.8 389.38,-88.8 386.38,-84.8 274.62,-84.8 274.62,-48.8 413.38,-48.8 413.38,-84.8"/>
<text text-anchor="middle" x="344" y="-62.6" font-family="Times,serif" font-size="14.00">HomeRoutingModule</text>
</g>
<!-- HomeRoutingModule&#45;&gt;HomeModule -->
<g id="edge2" class="edge">
<title>HomeRoutingModule&#45;&gt;HomeModule</title>
<path fill="none" stroke="black" d="M344,-84.91C344,-104.14 344,-131.8 344,-131.8 344,-131.8 266.87,-131.8 266.87,-131.8"/>
<polygon fill="black" stroke="black" points="266.87,-128.3 256.87,-131.8 266.87,-135.3 266.87,-128.3"/>
</g>
<!-- MenuModule -->
<g id="node4" class="node">
<title>MenuModule</title>
<polygon fill="#8dd3c7" stroke="black" points="256.21,-84.8 253.21,-88.8 232.21,-88.8 229.21,-84.8 163.79,-84.8 163.79,-48.8 256.21,-48.8 256.21,-84.8"/>
<text text-anchor="middle" x="210" y="-62.6" font-family="Times,serif" font-size="14.00">MenuModule</text>
</g>
<!-- MenuModule&#45;&gt;HomeModule -->
<g id="edge3" class="edge">
<title>MenuModule&#45;&gt;HomeModule</title>
<path fill="none" stroke="black" d="M210,-84.91C210,-84.91 210,-103.79 210,-103.79"/>
<polygon fill="black" stroke="black" points="206.5,-103.79 210,-113.79 213.5,-103.79 206.5,-103.79"/>
</g>
</g>
</svg>
