<?xml version="1.0" encoding="UTF-8" standalone="no"?>
<!DOCTYPE svg PUBLIC "-//W3C//DTD SVG 1.1//EN"
 "http://www.w3.org/Graphics/SVG/1.1/DTD/svg11.dtd">
<!-- Generated by graphviz version 5.0.0 (20220707.1540)
 -->
<!-- Title: dependencies Pages: 1 -->
<svg width="467pt" height="247pt"
 viewBox="0.00 0.00 467.00 246.80" xmlns="http://www.w3.org/2000/svg" xmlns:xlink="http://www.w3.org/1999/xlink">
<g id="graph0" class="graph" transform="scale(1 1) rotate(0) translate(4 242.8)">
<title>dependencies</title>
<polygon fill="white" stroke="transparent" points="-4,4 -4,-242.8 463,-242.8 463,4 -4,4"/>
<text text-anchor="middle" x="229.5" y="-8.2" font-family="sans-serif" font-size="14.00">dependencies</text>
<g id="clust1" class="cluster">
<title>cluster_PropertyModule</title>
<polygon fill="none" stroke="black" stroke-dasharray="1,5" points="8,-32.8 8,-230.8 451,-230.8 451,-32.8 8,-32.8"/>
</g>
<g id="clust2" class="cluster">
<title>cluster_PropertyModule_declarations</title>
<polygon fill="none" stroke="black" points="297,-40.8 297,-92.8 443,-92.8 443,-40.8 297,-40.8"/>
</g>
<g id="clust4" class="cluster">
<title>cluster_PropertyModule_imports</title>
<polygon fill="none" stroke="black" points="16,-40.8 16,-92.8 289,-92.8 289,-40.8 16,-40.8"/>
</g>
<g id="clust5" class="cluster">
<title>cluster_PropertyModule_exports</title>
<polygon fill="none" stroke="black" points="163,-170.8 163,-222.8 313,-222.8 313,-170.8 163,-170.8"/>
</g>
<!-- PropertyComponent -->
<g id="node1" class="node">
<title>PropertyComponent</title>
<polygon fill="#ffffb3" stroke="black" points="434.55,-84.8 305.45,-84.8 305.45,-48.8 434.55,-48.8 434.55,-84.8"/>
<text text-anchor="middle" x="370" y="-62.6" font-family="Times,serif" font-size="14.00">PropertyComponent</text>
</g>
<!-- PropertyModule -->
<g id="node2" class="node">
<title>PropertyModule</title>
<polygon fill="#8dd3c7" stroke="black" points="291.77,-149.8 288.77,-153.8 267.77,-153.8 264.77,-149.8 184.23,-149.8 184.23,-113.8 291.77,-113.8 291.77,-149.8"/>
<text text-anchor="middle" x="238" y="-127.6" font-family="Times,serif" font-size="14.00">PropertyModule</text>
</g>
<!-- PropertyComponent&#45;&gt;PropertyModule -->
<g id="edge1" class="edge">
<title>PropertyComponent&#45;&gt;PropertyModule</title>
<path fill="none" stroke="black" d="M305.13,-66.8C294.37,-66.8 286.63,-66.8 286.63,-66.8 286.63,-66.8 286.63,-103.69 286.63,-103.69"/>
<polygon fill="black" stroke="black" points="283.13,-103.69 286.63,-113.69 290.13,-103.69 283.13,-103.69"/>
</g>
<!-- PropertyComponent  -->
<g id="node5" class="node">
<title>PropertyComponent </title>
<polygon fill="#fb8072" stroke="black" points="304.54,-214.8 171.46,-214.8 171.46,-178.8 304.54,-178.8 304.54,-214.8"/>
<text text-anchor="middle" x="238" y="-192.6" font-family="Times,serif" font-size="14.00">PropertyComponent </text>
</g>
<!-- PropertyModule&#45;&gt;PropertyComponent  -->
<g id="edge4" class="edge">
<title>PropertyModule&#45;&gt;PropertyComponent </title>
<path fill="none" stroke="black" stroke-dasharray="5,2" d="M238,-149.91C238,-149.91 238,-168.79 238,-168.79"/>
<polygon fill="black" stroke="black" points="234.5,-168.79 238,-178.79 241.5,-168.79 234.5,-168.79"/>
</g>
<!-- CardModule -->
<g id="node3" class="node">
<title>CardModule</title>
<polygon fill="#8dd3c7" stroke="black" points="281.27,-84.8 278.27,-88.8 257.27,-88.8 254.27,-84.8 194.73,-84.8 194.73,-48.8 281.27,-48.8 281.27,-84.8"/>
<text text-anchor="middle" x="238" y="-62.6" font-family="Times,serif" font-size="14.00">CardModule</text>
</g>
<!-- CardModule&#45;&gt;PropertyModule -->
<g id="edge2" class="edge">
<title>CardModule&#45;&gt;PropertyModule</title>
<path fill="none" stroke="black" d="M238,-84.91C238,-84.91 238,-103.79 238,-103.79"/>
<polygon fill="black" stroke="black" points="234.5,-103.79 238,-113.79 241.5,-103.79 234.5,-103.79"/>
</g>
<!-- PropertyRoutingModule -->
<g id="node4" class="node">
<title>PropertyRoutingModule</title>
<polygon fill="#8dd3c7" stroke="black" points="176.38,-84.8 173.38,-88.8 152.38,-88.8 149.38,-84.8 23.62,-84.8 23.62,-48.8 176.38,-48.8 176.38,-84.8"/>
<text text-anchor="middle" x="100" y="-62.6" font-family="Times,serif" font-size="14.00">PropertyRoutingModule</text>
</g>
<!-- PropertyRoutingModule&#45;&gt;PropertyModule -->
<g id="edge3" class="edge">
<title>PropertyRoutingModule&#45;&gt;PropertyModule</title>
<path fill="none" stroke="black" d="M176.56,-66.8C184.29,-66.8 189.37,-66.8 189.37,-66.8 189.37,-66.8 189.37,-103.69 189.37,-103.69"/>
<polygon fill="black" stroke="black" points="185.87,-103.69 189.37,-113.69 192.87,-103.69 185.87,-103.69"/>
</g>
</g>
</svg>
