<?xml version="1.0" encoding="UTF-8" standalone="no"?>
<!DOCTYPE svg PUBLIC "-//W3C//DTD SVG 1.1//EN"
 "http://www.w3.org/Graphics/SVG/1.1/DTD/svg11.dtd">
<!-- Generated by graphviz version 5.0.0 (20220707.1540)
 -->
<!-- Title: dependencies Pages: 1 -->
<svg width="312pt" height="174pt"
 viewBox="0.00 0.00 312.00 173.80" xmlns="http://www.w3.org/2000/svg" xmlns:xlink="http://www.w3.org/1999/xlink">
<g id="graph0" class="graph" transform="scale(1 1) rotate(0) translate(4 169.8)">
<title>dependencies</title>
<polygon fill="white" stroke="transparent" points="-4,4 -4,-169.8 308,-169.8 308,4 -4,4"/>
<text text-anchor="middle" x="152" y="-8.2" font-family="sans-serif" font-size="14.00">dependencies</text>
<g id="clust1" class="cluster">
<title>cluster_LogModule</title>
<polygon fill="none" stroke="black" stroke-dasharray="1,5" points="8,-32.8 8,-157.8 296,-157.8 296,-32.8 8,-32.8"/>
</g>
<g id="clust4" class="cluster">
<title>cluster_LogModule_imports</title>
<polygon fill="none" stroke="black" points="144,-40.8 144,-92.8 288,-92.8 288,-40.8 144,-40.8"/>
</g>
<g id="clust2" class="cluster">
<title>cluster_LogModule_declarations</title>
<polygon fill="none" stroke="black" points="16,-40.8 16,-92.8 136,-92.8 136,-40.8 16,-40.8"/>
</g>
<!-- LogComponent -->
<g id="node1" class="node">
<title>LogComponent</title>
<polygon fill="#ffffb3" stroke="black" points="127.88,-84.8 24.12,-84.8 24.12,-48.8 127.88,-48.8 127.88,-84.8"/>
<text text-anchor="middle" x="76" y="-62.6" font-family="Times,serif" font-size="14.00">LogComponent</text>
</g>
<!-- LogModule -->
<g id="node2" class="node">
<title>LogModule</title>
<polygon fill="#8dd3c7" stroke="black" points="187.1,-149.8 184.1,-153.8 163.1,-153.8 160.1,-149.8 104.9,-149.8 104.9,-113.8 187.1,-113.8 187.1,-149.8"/>
<text text-anchor="middle" x="146" y="-127.6" font-family="Times,serif" font-size="14.00">LogModule</text>
</g>
<!-- LogComponent&#45;&gt;LogModule -->
<g id="edge1" class="edge">
<title>LogComponent&#45;&gt;LogModule</title>
<path fill="none" stroke="black" d="M116.44,-84.91C116.44,-84.91 116.44,-103.79 116.44,-103.79"/>
<polygon fill="black" stroke="black" points="112.94,-103.79 116.44,-113.79 119.94,-103.79 112.94,-103.79"/>
</g>
<!-- LogRoutingModule -->
<g id="node3" class="node">
<title>LogRoutingModule</title>
<polygon fill="#8dd3c7" stroke="black" points="279.72,-84.8 276.72,-88.8 255.72,-88.8 252.72,-84.8 152.28,-84.8 152.28,-48.8 279.72,-48.8 279.72,-84.8"/>
<text text-anchor="middle" x="216" y="-62.6" font-family="Times,serif" font-size="14.00">LogRoutingModule</text>
</g>
<!-- LogRoutingModule&#45;&gt;LogModule -->
<g id="edge2" class="edge">
<title>LogRoutingModule&#45;&gt;LogModule</title>
<path fill="none" stroke="black" d="M169.72,-84.91C169.72,-84.91 169.72,-103.79 169.72,-103.79"/>
<polygon fill="black" stroke="black" points="166.22,-103.79 169.72,-113.79 173.22,-103.79 166.22,-103.79"/>
</g>
</g>
</svg>
