<?xml version="1.0" encoding="UTF-8" standalone="no"?>
<!DOCTYPE svg PUBLIC "-//W3C//DTD SVG 1.1//EN"
 "http://www.w3.org/Graphics/SVG/1.1/DTD/svg11.dtd">
<!-- Generated by graphviz version 5.0.0 (20220707.1540)
 -->
<!-- Title: dependencies Pages: 1 -->
<svg width="312pt" height="174pt"
 viewBox="0.00 0.00 312.00 173.80" xmlns="http://www.w3.org/2000/svg" xmlns:xlink="http://www.w3.org/1999/xlink">
<g id="graph0" class="graph" transform="scale(1 1) rotate(0) translate(4 169.8)">
<title>dependencies</title>
<polygon fill="white" stroke="transparent" points="-4,4 -4,-169.8 308,-169.8 308,4 -4,4"/>
<text text-anchor="middle" x="152" y="-8.2" font-family="sans-serif" font-size="14.00">dependencies</text>
<g id="clust1" class="cluster">
<title>cluster_RegModule</title>
<polygon fill="none" stroke="black" stroke-dasharray="1,5" points="8,-32.8 8,-157.8 296,-157.8 296,-32.8 8,-32.8"/>
</g>
<g id="clust2" class="cluster">
<title>cluster_RegModule_declarations</title>
<polygon fill="none" stroke="black" points="168,-40.8 168,-92.8 288,-92.8 288,-40.8 168,-40.8"/>
</g>
<g id="clust4" class="cluster">
<title>cluster_RegModule_imports</title>
<polygon fill="none" stroke="black" points="16,-40.8 16,-92.8 160,-92.8 160,-40.8 16,-40.8"/>
</g>
<!-- RegComponent -->
<g id="node1" class="node">
<title>RegComponent</title>
<polygon fill="#ffffb3" stroke="black" points="279.88,-84.8 176.12,-84.8 176.12,-48.8 279.88,-48.8 279.88,-84.8"/>
<text text-anchor="middle" x="228" y="-62.6" font-family="Times,serif" font-size="14.00">RegComponent</text>
</g>
<!-- RegModule -->
<g id="node2" class="node">
<title>RegModule</title>
<polygon fill="#8dd3c7" stroke="black" points="199.1,-149.8 196.1,-153.8 175.1,-153.8 172.1,-149.8 116.9,-149.8 116.9,-113.8 199.1,-113.8 199.1,-149.8"/>
<text text-anchor="middle" x="158" y="-127.6" font-family="Times,serif" font-size="14.00">RegModule</text>
</g>
<!-- RegComponent&#45;&gt;RegModule -->
<g id="edge1" class="edge">
<title>RegComponent&#45;&gt;RegModule</title>
<path fill="none" stroke="black" d="M187.56,-84.91C187.56,-84.91 187.56,-103.79 187.56,-103.79"/>
<polygon fill="black" stroke="black" points="184.06,-103.79 187.56,-113.79 191.06,-103.79 184.06,-103.79"/>
</g>
<!-- RegRoutingModule -->
<g id="node3" class="node">
<title>RegRoutingModule</title>
<polygon fill="#8dd3c7" stroke="black" points="151.72,-84.8 148.72,-88.8 127.72,-88.8 124.72,-84.8 24.28,-84.8 24.28,-48.8 151.72,-48.8 151.72,-84.8"/>
<text text-anchor="middle" x="88" y="-62.6" font-family="Times,serif" font-size="14.00">RegRoutingModule</text>
</g>
<!-- RegRoutingModule&#45;&gt;RegModule -->
<g id="edge2" class="edge">
<title>RegRoutingModule&#45;&gt;RegModule</title>
<path fill="none" stroke="black" d="M134.28,-84.91C134.28,-84.91 134.28,-103.79 134.28,-103.79"/>
<polygon fill="black" stroke="black" points="130.78,-103.79 134.28,-113.79 137.78,-103.79 130.78,-103.79"/>
</g>
</g>
</svg>
