<?xml version="1.0" encoding="UTF-8" standalone="no"?>
<!DOCTYPE svg PUBLIC "-//W3C//DTD SVG 1.1//EN"
 "http://www.w3.org/Graphics/SVG/1.1/DTD/svg11.dtd">
<!-- Generated by graphviz version 5.0.0 (20220707.1540)
 -->
<!-- Title: dependencies Pages: 1 -->
<svg width="372pt" height="247pt"
 viewBox="0.00 0.00 372.00 246.80" xmlns="http://www.w3.org/2000/svg" xmlns:xlink="http://www.w3.org/1999/xlink">
<g id="graph0" class="graph" transform="scale(1 1) rotate(0) translate(4 242.8)">
<title>dependencies</title>
<polygon fill="white" stroke="transparent" points="-4,4 -4,-242.8 368,-242.8 368,4 -4,4"/>
<text text-anchor="middle" x="182" y="-8.2" font-family="sans-serif" font-size="14.00">dependencies</text>
<g id="clust1" class="cluster">
<title>cluster_SavedadsModule</title>
<polygon fill="none" stroke="black" stroke-dasharray="1,5" points="8,-32.8 8,-230.8 356,-230.8 356,-32.8 8,-32.8"/>
</g>
<g id="clust5" class="cluster">
<title>cluster_SavedadsModule_exports</title>
<polygon fill="none" stroke="black" points="110,-170.8 110,-222.8 264,-222.8 264,-170.8 110,-170.8"/>
</g>
<g id="clust2" class="cluster">
<title>cluster_SavedadsModule_declarations</title>
<polygon fill="none" stroke="black" points="198,-40.8 198,-92.8 348,-92.8 348,-40.8 198,-40.8"/>
</g>
<g id="clust4" class="cluster">
<title>cluster_SavedadsModule_imports</title>
<polygon fill="none" stroke="black" points="16,-40.8 16,-92.8 190,-92.8 190,-40.8 16,-40.8"/>
</g>
<!-- SavedadsComponent -->
<g id="node1" class="node">
<title>SavedadsComponent</title>
<polygon fill="#ffffb3" stroke="black" points="340.21,-84.8 205.79,-84.8 205.79,-48.8 340.21,-48.8 340.21,-84.8"/>
<text text-anchor="middle" x="273" y="-62.6" font-family="Times,serif" font-size="14.00">SavedadsComponent</text>
</g>
<!-- SavedadsModule -->
<g id="node2" class="node">
<title>SavedadsModule</title>
<polygon fill="#8dd3c7" stroke="black" points="243.43,-149.8 240.43,-153.8 219.43,-153.8 216.43,-149.8 130.57,-149.8 130.57,-113.8 243.43,-113.8 243.43,-149.8"/>
<text text-anchor="middle" x="187" y="-127.6" font-family="Times,serif" font-size="14.00">SavedadsModule</text>
</g>
<!-- SavedadsComponent&#45;&gt;SavedadsModule -->
<g id="edge1" class="edge">
<title>SavedadsComponent&#45;&gt;SavedadsModule</title>
<path fill="none" stroke="black" d="M224.56,-84.91C224.56,-84.91 224.56,-103.79 224.56,-103.79"/>
<polygon fill="black" stroke="black" points="221.06,-103.79 224.56,-113.79 228.06,-103.79 221.06,-103.79"/>
</g>
<!-- SavedadsComponent  -->
<g id="node4" class="node">
<title>SavedadsComponent </title>
<polygon fill="#fb8072" stroke="black" points="255.71,-214.8 118.29,-214.8 118.29,-178.8 255.71,-178.8 255.71,-214.8"/>
<text text-anchor="middle" x="187" y="-192.6" font-family="Times,serif" font-size="14.00">SavedadsComponent </text>
</g>
<!-- SavedadsModule&#45;&gt;SavedadsComponent  -->
<g id="edge3" class="edge">
<title>SavedadsModule&#45;&gt;SavedadsComponent </title>
<path fill="none" stroke="black" stroke-dasharray="5,2" d="M187,-149.91C187,-149.91 187,-168.79 187,-168.79"/>
<polygon fill="black" stroke="black" points="183.5,-168.79 187,-178.79 190.5,-168.79 183.5,-168.79"/>
</g>
<!-- SavedadsRoutingModule -->
<g id="node3" class="node">
<title>SavedadsRoutingModule</title>
<polygon fill="#8dd3c7" stroke="black" points="181.55,-84.8 178.55,-88.8 157.55,-88.8 154.55,-84.8 24.45,-84.8 24.45,-48.8 181.55,-48.8 181.55,-84.8"/>
<text text-anchor="middle" x="103" y="-62.6" font-family="Times,serif" font-size="14.00">SavedadsRoutingModule</text>
</g>
<!-- SavedadsRoutingModule&#45;&gt;SavedadsModule -->
<g id="edge2" class="edge">
<title>SavedadsRoutingModule&#45;&gt;SavedadsModule</title>
<path fill="none" stroke="black" d="M156.28,-84.91C156.28,-84.91 156.28,-103.79 156.28,-103.79"/>
<polygon fill="black" stroke="black" points="152.78,-103.79 156.28,-113.79 159.78,-103.79 152.78,-103.79"/>
</g>
</g>
</svg>
