<?xml version="1.0" encoding="UTF-8" standalone="no"?>
<!DOCTYPE svg PUBLIC "-//W3C//DTD SVG 1.1//EN"
 "http://www.w3.org/Graphics/SVG/1.1/DTD/svg11.dtd">
<!-- Generated by graphviz version 5.0.0 (20220707.1540)
 -->
<!-- Title: dependencies Pages: 1 -->
<svg width="278pt" height="247pt"
 viewBox="0.00 0.00 278.00 246.80" xmlns="http://www.w3.org/2000/svg" xmlns:xlink="http://www.w3.org/1999/xlink">
<g id="graph0" class="graph" transform="scale(1 1) rotate(0) translate(4 242.8)">
<title>dependencies</title>
<polygon fill="white" stroke="transparent" points="-4,4 -4,-242.8 274,-242.8 274,4 -4,4"/>
<text text-anchor="middle" x="135" y="-8.2" font-family="sans-serif" font-size="14.00">dependencies</text>
<g id="clust1" class="cluster">
<title>cluster_MenuModule</title>
<polygon fill="none" stroke="black" stroke-dasharray="1,5" points="8,-32.8 8,-230.8 262,-230.8 262,-32.8 8,-32.8"/>
</g>
<g id="clust5" class="cluster">
<title>cluster_MenuModule_exports</title>
<polygon fill="none" stroke="black" points="68,-170.8 68,-222.8 202,-222.8 202,-170.8 68,-170.8"/>
</g>
<g id="clust4" class="cluster">
<title>cluster_MenuModule_imports</title>
<polygon fill="none" stroke="black" points="154,-40.8 154,-92.8 254,-92.8 254,-40.8 154,-40.8"/>
</g>
<g id="clust2" class="cluster">
<title>cluster_MenuModule_declarations</title>
<polygon fill="none" stroke="black" points="16,-40.8 16,-92.8 146,-92.8 146,-40.8 16,-40.8"/>
</g>
<!-- MenuComponent -->
<g id="node1" class="node">
<title>MenuComponent</title>
<polygon fill="#ffffb3" stroke="black" points="137.99,-84.8 24.01,-84.8 24.01,-48.8 137.99,-48.8 137.99,-84.8"/>
<text text-anchor="middle" x="81" y="-62.6" font-family="Times,serif" font-size="14.00">MenuComponent</text>
</g>
<!-- MenuModule -->
<g id="node2" class="node">
<title>MenuModule</title>
<polygon fill="#8dd3c7" stroke="black" points="181.21,-149.8 178.21,-153.8 157.21,-153.8 154.21,-149.8 88.79,-149.8 88.79,-113.8 181.21,-113.8 181.21,-149.8"/>
<text text-anchor="middle" x="135" y="-127.6" font-family="Times,serif" font-size="14.00">MenuModule</text>
</g>
<!-- MenuComponent&#45;&gt;MenuModule -->
<g id="edge1" class="edge">
<title>MenuComponent&#45;&gt;MenuModule</title>
<path fill="none" stroke="black" d="M113.44,-84.91C113.44,-84.91 113.44,-103.79 113.44,-103.79"/>
<polygon fill="black" stroke="black" points="109.94,-103.79 113.44,-113.79 116.94,-103.79 109.94,-103.79"/>
</g>
<!-- MenuComponent  -->
<g id="node4" class="node">
<title>MenuComponent </title>
<polygon fill="#fb8072" stroke="black" points="193.99,-214.8 76.01,-214.8 76.01,-178.8 193.99,-178.8 193.99,-214.8"/>
<text text-anchor="middle" x="135" y="-192.6" font-family="Times,serif" font-size="14.00">MenuComponent </text>
</g>
<!-- MenuModule&#45;&gt;MenuComponent  -->
<g id="edge3" class="edge">
<title>MenuModule&#45;&gt;MenuComponent </title>
<path fill="none" stroke="black" stroke-dasharray="5,2" d="M135,-149.91C135,-149.91 135,-168.79 135,-168.79"/>
<polygon fill="black" stroke="black" points="131.5,-168.79 135,-178.79 138.5,-168.79 131.5,-168.79"/>
</g>
<!-- AddModule -->
<g id="node3" class="node">
<title>AddModule</title>
<polygon fill="#8dd3c7" stroke="black" points="245.66,-84.8 242.66,-88.8 221.66,-88.8 218.66,-84.8 162.34,-84.8 162.34,-48.8 245.66,-48.8 245.66,-84.8"/>
<text text-anchor="middle" x="204" y="-62.6" font-family="Times,serif" font-size="14.00">AddModule</text>
</g>
<!-- AddModule&#45;&gt;MenuModule -->
<g id="edge2" class="edge">
<title>AddModule&#45;&gt;MenuModule</title>
<path fill="none" stroke="black" d="M171.64,-84.91C171.64,-84.91 171.64,-103.79 171.64,-103.79"/>
<polygon fill="black" stroke="black" points="168.14,-103.79 171.64,-113.79 175.14,-103.79 168.14,-103.79"/>
</g>
</g>
</svg>
